<mxfile host="65bd71144e" modified="2020-11-13T08:50:04.875Z" agent="5.0 (X11; Linux x86_64) AppleWebKit/537.36 (KHTML, like Gecko) Code/1.51.1 Chrome/83.0.4103.122 Electron/9.3.3 Safari/537.36" etag="fH2kntodE0cH38Ggh2Rq" version="13.6.5" pages="2">
    <diagram id="oyU7DYYS5YgK3me0jhV5" name="Admin">
        <mxGraphModel dx="1248" dy="571" grid="1" gridSize="10" guides="1" tooltips="1" connect="1" arrows="1" fold="1" page="1" pageScale="1" pageWidth="827" pageHeight="1169" math="0" shadow="0">
            <root>
                <mxCell id="0"/>
                <mxCell id="1" parent="0"/>
                <mxCell id="6" value="" style="edgeStyle=orthogonalEdgeStyle;rounded=0;orthogonalLoop=1;jettySize=auto;html=1;verticalAlign=middle;" parent="1" source="2" target="5" edge="1">
                    <mxGeometry relative="1" as="geometry"/>
                </mxCell>
                <mxCell id="12" style="edgeStyle=orthogonalEdgeStyle;rounded=0;orthogonalLoop=1;jettySize=auto;html=1;exitX=0;exitY=1;exitDx=0;exitDy=0;exitPerimeter=0;" parent="1" source="2" target="13" edge="1">
                    <mxGeometry relative="1" as="geometry">
                        <mxPoint x="230" y="720" as="targetPoint"/>
                    </mxGeometry>
                </mxCell>
                <mxCell id="23" style="edgeStyle=orthogonalEdgeStyle;rounded=0;orthogonalLoop=1;jettySize=auto;html=1;exitX=1;exitY=1;exitDx=0;exitDy=0;exitPerimeter=0;entryX=0.5;entryY=0;entryDx=0;entryDy=0;" parent="1" source="2" target="24" edge="1">
                    <mxGeometry relative="1" as="geometry">
                        <mxPoint x="480" y="720" as="targetPoint"/>
                    </mxGeometry>
                </mxCell>
                <mxCell id="42" style="edgeStyle=orthogonalEdgeStyle;rounded=0;orthogonalLoop=1;jettySize=auto;html=1;exitX=1;exitY=1;exitDx=0;exitDy=0;exitPerimeter=0;entryX=0.033;entryY=0.65;entryDx=0;entryDy=0;entryPerimeter=0;" parent="1" source="2" target="41" edge="1">
                    <mxGeometry relative="1" as="geometry"/>
                </mxCell>
                <mxCell id="50" style="edgeStyle=orthogonalEdgeStyle;rounded=0;orthogonalLoop=1;jettySize=auto;html=1;exitX=1;exitY=0.3333333333333333;exitDx=0;exitDy=0;exitPerimeter=0;entryX=0;entryY=1;entryDx=0;entryDy=0;" parent="1" source="2" target="47" edge="1">
                    <mxGeometry relative="1" as="geometry"/>
                </mxCell>
                <mxCell id="56" style="edgeStyle=orthogonalEdgeStyle;rounded=0;orthogonalLoop=1;jettySize=auto;html=1;exitX=0.75;exitY=0.1;exitDx=0;exitDy=0;exitPerimeter=0;entryX=0;entryY=1;entryDx=0;entryDy=0;" parent="1" source="2" target="54" edge="1">
                    <mxGeometry relative="1" as="geometry">
                        <Array as="points">
                            <mxPoint x="473" y="590"/>
                            <mxPoint x="510" y="590"/>
                        </Array>
                    </mxGeometry>
                </mxCell>
                <mxCell id="59" style="edgeStyle=orthogonalEdgeStyle;rounded=0;orthogonalLoop=1;jettySize=auto;html=1;exitX=0.5;exitY=0;exitDx=0;exitDy=0;exitPerimeter=0;entryX=0.42;entryY=1.04;entryDx=0;entryDy=0;entryPerimeter=0;" parent="1" source="2" target="58" edge="1">
                    <mxGeometry relative="1" as="geometry"/>
                </mxCell>
                <mxCell id="69" style="edgeStyle=orthogonalEdgeStyle;rounded=0;orthogonalLoop=1;jettySize=auto;html=1;exitX=0.25;exitY=0.1;exitDx=0;exitDy=0;exitPerimeter=0;entryX=0.671;entryY=0.975;entryDx=0;entryDy=0;entryPerimeter=0;" parent="1" source="2" target="66" edge="1">
                    <mxGeometry relative="1" as="geometry"/>
                </mxCell>
                <mxCell id="2" value="Admin" style="shape=umlActor;verticalLabelPosition=bottom;verticalAlign=top;html=1;" parent="1" vertex="1">
                    <mxGeometry x="450" y="610" width="30" height="60" as="geometry"/>
                </mxCell>
                <mxCell id="8" value="" style="edgeStyle=orthogonalEdgeStyle;rounded=0;orthogonalLoop=1;jettySize=auto;html=1;verticalAlign=middle;" parent="1" source="5" target="7" edge="1">
                    <mxGeometry relative="1" as="geometry"/>
                </mxCell>
                <mxCell id="10" value="" style="edgeStyle=orthogonalEdgeStyle;rounded=0;orthogonalLoop=1;jettySize=auto;html=1;verticalAlign=middle;" parent="1" source="5" target="9" edge="1">
                    <mxGeometry relative="1" as="geometry"/>
                </mxCell>
                <mxCell id="5" value="&lt;p style=&quot;line-height: 100%&quot;&gt;Xác Thực Người Dùng&lt;/p&gt;" style="ellipse;whiteSpace=wrap;html=1;verticalAlign=middle;align=center;" parent="1" vertex="1">
                    <mxGeometry x="170" y="590" width="90" height="60" as="geometry"/>
                </mxCell>
                <mxCell id="7" value="&lt;p style=&quot;line-height: 100%&quot;&gt;Đăng Nhập&lt;/p&gt;" style="ellipse;whiteSpace=wrap;html=1;verticalAlign=middle;align=center;" parent="1" vertex="1">
                    <mxGeometry x="60" y="550" width="80" height="50" as="geometry"/>
                </mxCell>
                <mxCell id="9" value="&lt;p style=&quot;line-height: 100%&quot;&gt;Đăng Xuất&lt;/p&gt;" style="ellipse;whiteSpace=wrap;html=1;verticalAlign=middle;align=center;" parent="1" vertex="1">
                    <mxGeometry x="60" y="630" width="80" height="30" as="geometry"/>
                </mxCell>
                <mxCell id="15" value="" style="edgeStyle=orthogonalEdgeStyle;rounded=0;orthogonalLoop=1;jettySize=auto;html=1;" parent="1" source="13" target="14" edge="1">
                    <mxGeometry relative="1" as="geometry"/>
                </mxCell>
                <mxCell id="16" value="" style="edgeStyle=orthogonalEdgeStyle;rounded=0;orthogonalLoop=1;jettySize=auto;html=1;" parent="1" source="13" target="14" edge="1">
                    <mxGeometry relative="1" as="geometry"/>
                </mxCell>
                <mxCell id="17" style="edgeStyle=orthogonalEdgeStyle;rounded=0;orthogonalLoop=1;jettySize=auto;html=1;exitX=0.5;exitY=1;exitDx=0;exitDy=0;entryX=0.673;entryY=-0.033;entryDx=0;entryDy=0;entryPerimeter=0;" parent="1" source="13" target="18" edge="1">
                    <mxGeometry relative="1" as="geometry">
                        <mxPoint x="200" y="790" as="targetPoint"/>
                    </mxGeometry>
                </mxCell>
                <mxCell id="21" style="edgeStyle=orthogonalEdgeStyle;rounded=0;orthogonalLoop=1;jettySize=auto;html=1;exitX=0.5;exitY=1;exitDx=0;exitDy=0;" parent="1" source="13" target="19" edge="1">
                    <mxGeometry relative="1" as="geometry"/>
                </mxCell>
                <mxCell id="22" style="edgeStyle=orthogonalEdgeStyle;rounded=0;orthogonalLoop=1;jettySize=auto;html=1;exitX=0.5;exitY=1;exitDx=0;exitDy=0;" parent="1" source="13" target="20" edge="1">
                    <mxGeometry relative="1" as="geometry"/>
                </mxCell>
                <mxCell id="13" value="Thống Kê" style="ellipse;whiteSpace=wrap;html=1;" parent="1" vertex="1">
                    <mxGeometry x="100" y="720" width="110" height="30" as="geometry"/>
                </mxCell>
                <mxCell id="14" value="Khách Hàng Mới" style="ellipse;whiteSpace=wrap;html=1;" parent="1" vertex="1">
                    <mxGeometry x="40" y="895" width="110" height="30" as="geometry"/>
                </mxCell>
                <mxCell id="18" value="Đơn Hàng Mới" style="ellipse;whiteSpace=wrap;html=1;" parent="1" vertex="1">
                    <mxGeometry x="80" y="1000" width="110" height="30" as="geometry"/>
                </mxCell>
                <mxCell id="19" value="Sản Phẩm Mới" style="ellipse;whiteSpace=wrap;html=1;" parent="1" vertex="1">
                    <mxGeometry x="170" y="930" width="110" height="30" as="geometry"/>
                </mxCell>
                <mxCell id="20" value="Bài Viết Mới" style="ellipse;whiteSpace=wrap;html=1;" parent="1" vertex="1">
                    <mxGeometry x="180" y="790" width="110" height="30" as="geometry"/>
                </mxCell>
                <mxCell id="27" style="edgeStyle=orthogonalEdgeStyle;rounded=0;orthogonalLoop=1;jettySize=auto;html=1;exitX=0;exitY=0.5;exitDx=0;exitDy=0;entryX=0.375;entryY=0.05;entryDx=0;entryDy=0;entryPerimeter=0;" parent="1" source="24" target="25" edge="1">
                    <mxGeometry relative="1" as="geometry"/>
                </mxCell>
                <mxCell id="28" style="edgeStyle=orthogonalEdgeStyle;rounded=0;orthogonalLoop=1;jettySize=auto;html=1;exitX=1;exitY=0.5;exitDx=0;exitDy=0;" parent="1" source="24" target="26" edge="1">
                    <mxGeometry relative="1" as="geometry"/>
                </mxCell>
                <mxCell id="24" value="Quản Lý Sản Phẩm" style="ellipse;whiteSpace=wrap;html=1;" parent="1" vertex="1">
                    <mxGeometry x="374" y="730" width="96" height="50" as="geometry"/>
                </mxCell>
                <mxCell id="32" style="edgeStyle=orthogonalEdgeStyle;rounded=0;orthogonalLoop=1;jettySize=auto;html=1;exitX=0;exitY=1;exitDx=0;exitDy=0;entryX=0.5;entryY=0;entryDx=0;entryDy=0;" parent="1" source="25" target="29" edge="1">
                    <mxGeometry relative="1" as="geometry"/>
                </mxCell>
                <mxCell id="33" style="edgeStyle=orthogonalEdgeStyle;rounded=0;orthogonalLoop=1;jettySize=auto;html=1;exitX=0.5;exitY=1;exitDx=0;exitDy=0;" parent="1" source="25" target="30" edge="1">
                    <mxGeometry relative="1" as="geometry"/>
                </mxCell>
                <mxCell id="34" style="edgeStyle=orthogonalEdgeStyle;rounded=0;orthogonalLoop=1;jettySize=auto;html=1;exitX=1;exitY=1;exitDx=0;exitDy=0;entryX=0.5;entryY=0;entryDx=0;entryDy=0;" parent="1" source="25" target="31" edge="1">
                    <mxGeometry relative="1" as="geometry"/>
                </mxCell>
                <mxCell id="25" value="Sản Phẩm" style="ellipse;whiteSpace=wrap;html=1;" parent="1" vertex="1">
                    <mxGeometry x="380" y="890" width="80" height="40" as="geometry"/>
                </mxCell>
                <mxCell id="38" style="edgeStyle=orthogonalEdgeStyle;rounded=0;orthogonalLoop=1;jettySize=auto;html=1;exitX=0;exitY=1;exitDx=0;exitDy=0;entryX=0.5;entryY=0;entryDx=0;entryDy=0;" parent="1" source="26" target="35" edge="1">
                    <mxGeometry relative="1" as="geometry"/>
                </mxCell>
                <mxCell id="39" style="edgeStyle=orthogonalEdgeStyle;rounded=0;orthogonalLoop=1;jettySize=auto;html=1;exitX=1;exitY=1;exitDx=0;exitDy=0;entryX=0.383;entryY=0.033;entryDx=0;entryDy=0;entryPerimeter=0;" parent="1" source="26" target="36" edge="1">
                    <mxGeometry relative="1" as="geometry"/>
                </mxCell>
                <mxCell id="40" style="edgeStyle=orthogonalEdgeStyle;rounded=0;orthogonalLoop=1;jettySize=auto;html=1;exitX=1;exitY=0.5;exitDx=0;exitDy=0;entryX=0;entryY=0;entryDx=0;entryDy=0;" parent="1" source="26" target="37" edge="1">
                    <mxGeometry relative="1" as="geometry"/>
                </mxCell>
                <mxCell id="26" value="Loại Sản Phẩm" style="ellipse;whiteSpace=wrap;html=1;" parent="1" vertex="1">
                    <mxGeometry x="452" y="790" width="80" height="60" as="geometry"/>
                </mxCell>
                <mxCell id="29" value="Thêm" style="ellipse;whiteSpace=wrap;html=1;" parent="1" vertex="1">
                    <mxGeometry x="330" y="960" width="60" height="30" as="geometry"/>
                </mxCell>
                <mxCell id="30" value="Sửa" style="ellipse;whiteSpace=wrap;html=1;" parent="1" vertex="1">
                    <mxGeometry x="410" y="980" width="60" height="30" as="geometry"/>
                </mxCell>
                <mxCell id="31" value="Xóa" style="ellipse;whiteSpace=wrap;html=1;" parent="1" vertex="1">
                    <mxGeometry x="472" y="950" width="60" height="30" as="geometry"/>
                </mxCell>
                <mxCell id="35" value="Thêm" style="ellipse;whiteSpace=wrap;html=1;" parent="1" vertex="1">
                    <mxGeometry x="520" y="880" width="60" height="30" as="geometry"/>
                </mxCell>
                <mxCell id="36" value="Sửa" style="ellipse;whiteSpace=wrap;html=1;" parent="1" vertex="1">
                    <mxGeometry x="600" y="930" width="60" height="30" as="geometry"/>
                </mxCell>
                <mxCell id="37" value="Xóa" style="ellipse;whiteSpace=wrap;html=1;" parent="1" vertex="1">
                    <mxGeometry x="680" y="890" width="60" height="30" as="geometry"/>
                </mxCell>
                <mxCell id="45" style="edgeStyle=orthogonalEdgeStyle;rounded=0;orthogonalLoop=1;jettySize=auto;html=1;exitX=0.5;exitY=1;exitDx=0;exitDy=0;entryX=0.05;entryY=0.28;entryDx=0;entryDy=0;entryPerimeter=0;" parent="1" source="41" target="43" edge="1">
                    <mxGeometry relative="1" as="geometry"/>
                </mxCell>
                <mxCell id="46" style="edgeStyle=orthogonalEdgeStyle;rounded=0;orthogonalLoop=1;jettySize=auto;html=1;exitX=1;exitY=0.5;exitDx=0;exitDy=0;entryX=0.046;entryY=0.382;entryDx=0;entryDy=0;entryPerimeter=0;" parent="1" source="41" target="44" edge="1">
                    <mxGeometry relative="1" as="geometry"/>
                </mxCell>
                <mxCell id="41" value="Quản Lý Đơn Hàng" style="ellipse;whiteSpace=wrap;html=1;" parent="1" vertex="1">
                    <mxGeometry x="600" y="670" width="90" height="60" as="geometry"/>
                </mxCell>
                <mxCell id="43" value="Xử Lý Đơn" style="ellipse;whiteSpace=wrap;html=1;" parent="1" vertex="1">
                    <mxGeometry x="590" y="750" width="60" height="50" as="geometry"/>
                </mxCell>
                <mxCell id="44" value="Xem Chi Tiết Đơn" style="ellipse;whiteSpace=wrap;html=1;" parent="1" vertex="1">
                    <mxGeometry x="700" y="747.5" width="65" height="55" as="geometry"/>
                </mxCell>
                <mxCell id="51" style="edgeStyle=orthogonalEdgeStyle;rounded=0;orthogonalLoop=1;jettySize=auto;html=1;exitX=1;exitY=0;exitDx=0;exitDy=0;entryX=0;entryY=0.5;entryDx=0;entryDy=0;" parent="1" source="47" target="49" edge="1">
                    <mxGeometry relative="1" as="geometry"/>
                </mxCell>
                <mxCell id="53" style="edgeStyle=orthogonalEdgeStyle;rounded=0;orthogonalLoop=1;jettySize=auto;html=1;exitX=1;exitY=1;exitDx=0;exitDy=0;entryX=0.033;entryY=0.767;entryDx=0;entryDy=0;entryPerimeter=0;" parent="1" source="47" target="48" edge="1">
                    <mxGeometry relative="1" as="geometry"/>
                </mxCell>
                <mxCell id="47" value="Quản Lý Khách Hàng" style="ellipse;whiteSpace=wrap;html=1;" parent="1" vertex="1">
                    <mxGeometry x="590" y="590" width="80" height="60" as="geometry"/>
                </mxCell>
                <mxCell id="48" value="Xóa" style="ellipse;whiteSpace=wrap;html=1;" parent="1" vertex="1">
                    <mxGeometry x="740" y="650" width="60" height="30" as="geometry"/>
                </mxCell>
                <mxCell id="49" value="Sửa" style="ellipse;whiteSpace=wrap;html=1;" parent="1" vertex="1">
                    <mxGeometry x="740" y="570" width="60" height="30" as="geometry"/>
                </mxCell>
                <mxCell id="57" style="edgeStyle=orthogonalEdgeStyle;rounded=0;orthogonalLoop=1;jettySize=auto;html=1;exitX=1;exitY=0;exitDx=0;exitDy=0;entryX=0.025;entryY=0.76;entryDx=0;entryDy=0;entryPerimeter=0;" parent="1" source="54" target="55" edge="1">
                    <mxGeometry relative="1" as="geometry"/>
                </mxCell>
                <mxCell id="54" value="Báo Cáo" style="ellipse;whiteSpace=wrap;html=1;" parent="1" vertex="1">
                    <mxGeometry x="532" y="550" width="70" height="40" as="geometry"/>
                </mxCell>
                <mxCell id="55" value="Báo Cáo Doanh Thu" style="ellipse;whiteSpace=wrap;html=1;" parent="1" vertex="1">
                    <mxGeometry x="670" y="490" width="80" height="50" as="geometry"/>
                </mxCell>
                <mxCell id="63" style="edgeStyle=orthogonalEdgeStyle;rounded=0;orthogonalLoop=1;jettySize=auto;html=1;exitX=0.5;exitY=0;exitDx=0;exitDy=0;entryX=0;entryY=1;entryDx=0;entryDy=0;" parent="1" source="58" target="60" edge="1">
                    <mxGeometry relative="1" as="geometry"/>
                </mxCell>
                <mxCell id="64" style="edgeStyle=orthogonalEdgeStyle;rounded=0;orthogonalLoop=1;jettySize=auto;html=1;exitX=1;exitY=0;exitDx=0;exitDy=0;entryX=0;entryY=1;entryDx=0;entryDy=0;" parent="1" source="58" target="61" edge="1">
                    <mxGeometry relative="1" as="geometry">
                        <Array as="points">
                            <mxPoint x="565" y="460"/>
                            <mxPoint x="652" y="460"/>
                        </Array>
                    </mxGeometry>
                </mxCell>
                <mxCell id="65" style="edgeStyle=orthogonalEdgeStyle;rounded=0;orthogonalLoop=1;jettySize=auto;html=1;exitX=1;exitY=0.5;exitDx=0;exitDy=0;entryX=0.017;entryY=0.833;entryDx=0;entryDy=0;entryPerimeter=0;" parent="1" source="58" target="62" edge="1">
                    <mxGeometry relative="1" as="geometry"/>
                </mxCell>
                <mxCell id="58" value="Quản Lý Tin Tức" style="ellipse;whiteSpace=wrap;html=1;" parent="1" vertex="1">
                    <mxGeometry x="480" y="480" width="100" height="50" as="geometry"/>
                </mxCell>
                <mxCell id="60" value="Thêm" style="ellipse;whiteSpace=wrap;html=1;" parent="1" vertex="1">
                    <mxGeometry x="563" y="380" width="60" height="30" as="geometry"/>
                </mxCell>
                <mxCell id="61" value="Sửa" style="ellipse;whiteSpace=wrap;html=1;" parent="1" vertex="1">
                    <mxGeometry x="643" y="400" width="60" height="30" as="geometry"/>
                </mxCell>
                <mxCell id="62" value="Xóa" style="ellipse;whiteSpace=wrap;html=1;" parent="1" vertex="1">
                    <mxGeometry x="730" y="440" width="60" height="30" as="geometry"/>
                </mxCell>
                <mxCell id="70" style="edgeStyle=orthogonalEdgeStyle;rounded=0;orthogonalLoop=1;jettySize=auto;html=1;exitX=0;exitY=0;exitDx=0;exitDy=0;entryX=1;entryY=1;entryDx=0;entryDy=0;" parent="1" source="66" target="67" edge="1">
                    <mxGeometry relative="1" as="geometry"/>
                </mxCell>
                <mxCell id="71" style="edgeStyle=orthogonalEdgeStyle;rounded=0;orthogonalLoop=1;jettySize=auto;html=1;exitX=0.5;exitY=0;exitDx=0;exitDy=0;entryX=0.5;entryY=1;entryDx=0;entryDy=0;" parent="1" source="66" target="68" edge="1">
                    <mxGeometry relative="1" as="geometry"/>
                </mxCell>
                <mxCell id="66" value="Quản Lý Liên Hệ" style="ellipse;whiteSpace=wrap;html=1;" parent="1" vertex="1">
                    <mxGeometry x="350" y="510" width="76" height="40" as="geometry"/>
                </mxCell>
                <mxCell id="67" value="Xem Lời Nhắn" style="ellipse;whiteSpace=wrap;html=1;" parent="1" vertex="1">
                    <mxGeometry x="230" y="460" width="90" height="40" as="geometry"/>
                </mxCell>
                <mxCell id="68" value="Xóa" style="ellipse;whiteSpace=wrap;html=1;" parent="1" vertex="1">
                    <mxGeometry x="358" y="440" width="60" height="30" as="geometry"/>
                </mxCell>
            </root>
        </mxGraphModel>
    </diagram>
    <diagram id="9pokoe70747h6Pu6jWtH" name="Customer">
        <mxGraphModel dx="1248" dy="571" grid="1" gridSize="10" guides="1" tooltips="1" connect="1" arrows="1" fold="1" page="1" pageScale="1" pageWidth="827" pageHeight="1169" math="0" shadow="0">
            <root>
                <mxCell id="1G5voQuGkvZB4VuU4Dce-0"/>
                <mxCell id="1G5voQuGkvZB4VuU4Dce-1" parent="1G5voQuGkvZB4VuU4Dce-0"/>
                <mxCell id="IY_ZBADd3qkImIFsQSao-3" style="edgeStyle=orthogonalEdgeStyle;rounded=0;orthogonalLoop=1;jettySize=auto;html=1;exitX=0.25;exitY=0.1;exitDx=0;exitDy=0;exitPerimeter=0;entryX=1;entryY=0.667;entryDx=0;entryDy=0;entryPerimeter=0;" parent="1G5voQuGkvZB4VuU4Dce-1" source="1G5voQuGkvZB4VuU4Dce-2" target="IY_ZBADd3qkImIFsQSao-0" edge="1">
                    <mxGeometry relative="1" as="geometry"/>
                </mxCell>
                <mxCell id="341uI1UgkHbr8wSPrDYZ-2" style="edgeStyle=orthogonalEdgeStyle;rounded=0;orthogonalLoop=1;jettySize=auto;html=1;exitX=0;exitY=1;exitDx=0;exitDy=0;exitPerimeter=0;entryX=1;entryY=0.5;entryDx=0;entryDy=0;" parent="1G5voQuGkvZB4VuU4Dce-1" source="1G5voQuGkvZB4VuU4Dce-2" target="341uI1UgkHbr8wSPrDYZ-0" edge="1">
                    <mxGeometry relative="1" as="geometry"/>
                </mxCell>
                <mxCell id="341uI1UgkHbr8wSPrDYZ-16" style="edgeStyle=orthogonalEdgeStyle;rounded=0;orthogonalLoop=1;jettySize=auto;html=1;exitX=1;exitY=1;exitDx=0;exitDy=0;exitPerimeter=0;entryX=0.5;entryY=0;entryDx=0;entryDy=0;" parent="1G5voQuGkvZB4VuU4Dce-1" source="1G5voQuGkvZB4VuU4Dce-2" target="341uI1UgkHbr8wSPrDYZ-15" edge="1">
                    <mxGeometry relative="1" as="geometry"/>
                </mxCell>
                <mxCell id="341uI1UgkHbr8wSPrDYZ-27" style="edgeStyle=orthogonalEdgeStyle;rounded=0;orthogonalLoop=1;jettySize=auto;html=1;exitX=1;exitY=1;exitDx=0;exitDy=0;exitPerimeter=0;entryX=-0.02;entryY=0.66;entryDx=0;entryDy=0;entryPerimeter=0;" parent="1G5voQuGkvZB4VuU4Dce-1" source="1G5voQuGkvZB4VuU4Dce-2" target="341uI1UgkHbr8wSPrDYZ-25" edge="1">
                    <mxGeometry relative="1" as="geometry"/>
                </mxCell>
                <mxCell id="341uI1UgkHbr8wSPrDYZ-48" style="edgeStyle=orthogonalEdgeStyle;rounded=0;orthogonalLoop=1;jettySize=auto;html=1;exitX=1;exitY=0.3333333333333333;exitDx=0;exitDy=0;exitPerimeter=0;entryX=0.5;entryY=1;entryDx=0;entryDy=0;" parent="1G5voQuGkvZB4VuU4Dce-1" source="1G5voQuGkvZB4VuU4Dce-2" target="341uI1UgkHbr8wSPrDYZ-47" edge="1">
                    <mxGeometry relative="1" as="geometry"/>
                </mxCell>
                <mxCell id="341uI1UgkHbr8wSPrDYZ-52" style="edgeStyle=orthogonalEdgeStyle;rounded=0;orthogonalLoop=1;jettySize=auto;html=1;exitX=0.5;exitY=0;exitDx=0;exitDy=0;exitPerimeter=0;entryX=0.5;entryY=1;entryDx=0;entryDy=0;" parent="1G5voQuGkvZB4VuU4Dce-1" source="1G5voQuGkvZB4VuU4Dce-2" target="341uI1UgkHbr8wSPrDYZ-51" edge="1">
                    <mxGeometry relative="1" as="geometry"/>
                </mxCell>
                <mxCell id="1G5voQuGkvZB4VuU4Dce-2" value="Customer" style="shape=umlActor;verticalLabelPosition=bottom;verticalAlign=top;html=1;sketch=0;" parent="1G5voQuGkvZB4VuU4Dce-1" vertex="1">
                    <mxGeometry x="370" y="555" width="30" height="60" as="geometry"/>
                </mxCell>
                <mxCell id="IY_ZBADd3qkImIFsQSao-4" style="edgeStyle=orthogonalEdgeStyle;rounded=0;orthogonalLoop=1;jettySize=auto;html=1;exitX=0;exitY=1;exitDx=0;exitDy=0;entryX=1;entryY=0.5;entryDx=0;entryDy=0;" parent="1G5voQuGkvZB4VuU4Dce-1" source="IY_ZBADd3qkImIFsQSao-0" target="IY_ZBADd3qkImIFsQSao-2" edge="1">
                    <mxGeometry relative="1" as="geometry">
                        <Array as="points">
                            <mxPoint x="165" y="576"/>
                            <mxPoint x="165" y="555"/>
                            <mxPoint x="100" y="555"/>
                        </Array>
                    </mxGeometry>
                </mxCell>
                <mxCell id="IY_ZBADd3qkImIFsQSao-5" style="edgeStyle=orthogonalEdgeStyle;rounded=0;orthogonalLoop=1;jettySize=auto;html=1;exitX=0;exitY=0;exitDx=0;exitDy=0;entryX=1;entryY=0.68;entryDx=0;entryDy=0;entryPerimeter=0;" parent="1G5voQuGkvZB4VuU4Dce-1" source="IY_ZBADd3qkImIFsQSao-0" target="IY_ZBADd3qkImIFsQSao-1" edge="1">
                    <mxGeometry relative="1" as="geometry"/>
                </mxCell>
                <mxCell id="IY_ZBADd3qkImIFsQSao-7" style="edgeStyle=orthogonalEdgeStyle;rounded=0;orthogonalLoop=1;jettySize=auto;html=1;exitX=0.5;exitY=0;exitDx=0;exitDy=0;entryX=1;entryY=1;entryDx=0;entryDy=0;" parent="1G5voQuGkvZB4VuU4Dce-1" source="IY_ZBADd3qkImIFsQSao-0" target="IY_ZBADd3qkImIFsQSao-6" edge="1">
                    <mxGeometry relative="1" as="geometry">
                        <Array as="points">
                            <mxPoint x="275" y="488"/>
                            <mxPoint x="180" y="488"/>
                            <mxPoint x="180" y="446"/>
                        </Array>
                    </mxGeometry>
                </mxCell>
                <mxCell id="uOP9_a5jq8u6PZyzWdQ_-1" style="edgeStyle=orthogonalEdgeStyle;rounded=0;orthogonalLoop=1;jettySize=auto;html=1;exitX=1;exitY=0;exitDx=0;exitDy=0;" parent="1G5voQuGkvZB4VuU4Dce-1" source="IY_ZBADd3qkImIFsQSao-0" target="uOP9_a5jq8u6PZyzWdQ_-0" edge="1">
                    <mxGeometry relative="1" as="geometry"/>
                </mxCell>
                <mxCell id="IY_ZBADd3qkImIFsQSao-0" value="&lt;p style=&quot;line-height: 100%&quot;&gt;Xác Thực Người Dùng&lt;/p&gt;" style="ellipse;whiteSpace=wrap;html=1;verticalAlign=middle;align=center;" parent="1G5voQuGkvZB4VuU4Dce-1" vertex="1">
                    <mxGeometry x="230" y="525" width="90" height="60" as="geometry"/>
                </mxCell>
                <mxCell id="IY_ZBADd3qkImIFsQSao-1" value="&lt;p style=&quot;line-height: 100%&quot;&gt;Đăng Nhập&lt;/p&gt;" style="ellipse;whiteSpace=wrap;html=1;verticalAlign=middle;align=center;" parent="1G5voQuGkvZB4VuU4Dce-1" vertex="1">
                    <mxGeometry x="10" y="470" width="80" height="30" as="geometry"/>
                </mxCell>
                <mxCell id="IY_ZBADd3qkImIFsQSao-2" value="&lt;p style=&quot;line-height: 100%&quot;&gt;Đăng Xuất&lt;/p&gt;" style="ellipse;whiteSpace=wrap;html=1;verticalAlign=middle;align=center;" parent="1G5voQuGkvZB4VuU4Dce-1" vertex="1">
                    <mxGeometry x="20" y="525" width="80" height="30" as="geometry"/>
                </mxCell>
                <mxCell id="IY_ZBADd3qkImIFsQSao-6" value="&lt;p style=&quot;line-height: 100%&quot;&gt;Đăng Ký&lt;/p&gt;" style="ellipse;whiteSpace=wrap;html=1;verticalAlign=middle;align=center;" parent="1G5voQuGkvZB4VuU4Dce-1" vertex="1">
                    <mxGeometry x="80" y="420" width="80" height="30" as="geometry"/>
                </mxCell>
                <mxCell id="341uI1UgkHbr8wSPrDYZ-3" style="edgeStyle=orthogonalEdgeStyle;rounded=0;orthogonalLoop=1;jettySize=auto;html=1;exitX=0;exitY=0.5;exitDx=0;exitDy=0;" parent="1G5voQuGkvZB4VuU4Dce-1" source="341uI1UgkHbr8wSPrDYZ-0" target="341uI1UgkHbr8wSPrDYZ-1" edge="1">
                    <mxGeometry relative="1" as="geometry"/>
                </mxCell>
                <mxCell id="341uI1UgkHbr8wSPrDYZ-0" value="Sản Phẩm" style="ellipse;whiteSpace=wrap;html=1;" parent="1G5voQuGkvZB4VuU4Dce-1" vertex="1">
                    <mxGeometry x="225" y="610" width="90" height="40" as="geometry"/>
                </mxCell>
                <mxCell id="341uI1UgkHbr8wSPrDYZ-8" style="edgeStyle=orthogonalEdgeStyle;rounded=0;orthogonalLoop=1;jettySize=auto;html=1;exitX=0;exitY=0.5;exitDx=0;exitDy=0;entryX=1;entryY=0.5;entryDx=0;entryDy=0;" parent="1G5voQuGkvZB4VuU4Dce-1" source="341uI1UgkHbr8wSPrDYZ-1" target="341uI1UgkHbr8wSPrDYZ-4" edge="1">
                    <mxGeometry relative="1" as="geometry">
                        <mxPoint x="110" y="640" as="targetPoint"/>
                    </mxGeometry>
                </mxCell>
                <mxCell id="341uI1UgkHbr8wSPrDYZ-9" style="edgeStyle=orthogonalEdgeStyle;rounded=0;orthogonalLoop=1;jettySize=auto;html=1;exitX=0;exitY=1;exitDx=0;exitDy=0;entryX=1;entryY=0;entryDx=0;entryDy=0;" parent="1G5voQuGkvZB4VuU4Dce-1" source="341uI1UgkHbr8wSPrDYZ-1" target="341uI1UgkHbr8wSPrDYZ-5" edge="1">
                    <mxGeometry relative="1" as="geometry"/>
                </mxCell>
                <mxCell id="341uI1UgkHbr8wSPrDYZ-10" style="edgeStyle=orthogonalEdgeStyle;rounded=0;orthogonalLoop=1;jettySize=auto;html=1;exitX=0.5;exitY=1;exitDx=0;exitDy=0;entryX=0.5;entryY=0;entryDx=0;entryDy=0;" parent="1G5voQuGkvZB4VuU4Dce-1" source="341uI1UgkHbr8wSPrDYZ-1" target="341uI1UgkHbr8wSPrDYZ-6" edge="1">
                    <mxGeometry relative="1" as="geometry"/>
                </mxCell>
                <mxCell id="341uI1UgkHbr8wSPrDYZ-11" style="edgeStyle=orthogonalEdgeStyle;rounded=0;orthogonalLoop=1;jettySize=auto;html=1;exitX=1;exitY=1;exitDx=0;exitDy=0;entryX=0.225;entryY=0.118;entryDx=0;entryDy=0;entryPerimeter=0;" parent="1G5voQuGkvZB4VuU4Dce-1" source="341uI1UgkHbr8wSPrDYZ-1" target="341uI1UgkHbr8wSPrDYZ-7" edge="1">
                    <mxGeometry relative="1" as="geometry"/>
                </mxCell>
                <mxCell id="341uI1UgkHbr8wSPrDYZ-13" style="edgeStyle=orthogonalEdgeStyle;rounded=0;orthogonalLoop=1;jettySize=auto;html=1;exitX=0;exitY=0;exitDx=0;exitDy=0;entryX=1;entryY=0.5;entryDx=0;entryDy=0;" parent="1G5voQuGkvZB4VuU4Dce-1" source="341uI1UgkHbr8wSPrDYZ-1" target="341uI1UgkHbr8wSPrDYZ-12" edge="1">
                    <mxGeometry relative="1" as="geometry"/>
                </mxCell>
                <mxCell id="341uI1UgkHbr8wSPrDYZ-1" value="Xem thông tin sản phẩm" style="ellipse;whiteSpace=wrap;html=1;" parent="1G5voQuGkvZB4VuU4Dce-1" vertex="1">
                    <mxGeometry x="125" y="680" width="110" height="50" as="geometry"/>
                </mxCell>
                <mxCell id="341uI1UgkHbr8wSPrDYZ-4" value="Ảnh Sản Phẩm" style="ellipse;whiteSpace=wrap;html=1;" parent="1G5voQuGkvZB4VuU4Dce-1" vertex="1">
                    <mxGeometry x="5" y="650" width="90" height="50" as="geometry"/>
                </mxCell>
                <mxCell id="341uI1UgkHbr8wSPrDYZ-5" value="Tên Sản Phẩm" style="ellipse;whiteSpace=wrap;html=1;" parent="1G5voQuGkvZB4VuU4Dce-1" vertex="1">
                    <mxGeometry x="50" y="780" width="60" height="60" as="geometry"/>
                </mxCell>
                <mxCell id="341uI1UgkHbr8wSPrDYZ-6" value="Giá Sản Phẩm" style="ellipse;whiteSpace=wrap;html=1;" parent="1G5voQuGkvZB4VuU4Dce-1" vertex="1">
                    <mxGeometry x="130" y="800" width="70" height="50" as="geometry"/>
                </mxCell>
                <mxCell id="341uI1UgkHbr8wSPrDYZ-7" value="Đánh Giá Sản Phẩm" style="ellipse;whiteSpace=wrap;html=1;" parent="1G5voQuGkvZB4VuU4Dce-1" vertex="1">
                    <mxGeometry x="225" y="790" width="80" height="55" as="geometry"/>
                </mxCell>
                <mxCell id="341uI1UgkHbr8wSPrDYZ-12" value="Loại Sản Phẩm" style="ellipse;whiteSpace=wrap;html=1;" parent="1G5voQuGkvZB4VuU4Dce-1" vertex="1">
                    <mxGeometry x="30" y="585" width="110" height="40" as="geometry"/>
                </mxCell>
                <mxCell id="341uI1UgkHbr8wSPrDYZ-21" style="edgeStyle=orthogonalEdgeStyle;rounded=0;orthogonalLoop=1;jettySize=auto;html=1;exitX=0;exitY=1;exitDx=0;exitDy=0;entryX=0.975;entryY=0.257;entryDx=0;entryDy=0;entryPerimeter=0;" parent="1G5voQuGkvZB4VuU4Dce-1" source="341uI1UgkHbr8wSPrDYZ-15" target="341uI1UgkHbr8wSPrDYZ-17" edge="1">
                    <mxGeometry relative="1" as="geometry"/>
                </mxCell>
                <mxCell id="341uI1UgkHbr8wSPrDYZ-22" style="edgeStyle=orthogonalEdgeStyle;rounded=0;orthogonalLoop=1;jettySize=auto;html=1;exitX=0.5;exitY=1;exitDx=0;exitDy=0;entryX=0.5;entryY=0;entryDx=0;entryDy=0;" parent="1G5voQuGkvZB4VuU4Dce-1" source="341uI1UgkHbr8wSPrDYZ-15" target="341uI1UgkHbr8wSPrDYZ-18" edge="1">
                    <mxGeometry relative="1" as="geometry"/>
                </mxCell>
                <mxCell id="341uI1UgkHbr8wSPrDYZ-23" style="edgeStyle=orthogonalEdgeStyle;rounded=0;orthogonalLoop=1;jettySize=auto;html=1;exitX=1;exitY=1;exitDx=0;exitDy=0;entryX=0.25;entryY=0.093;entryDx=0;entryDy=0;entryPerimeter=0;" parent="1G5voQuGkvZB4VuU4Dce-1" source="341uI1UgkHbr8wSPrDYZ-15" target="341uI1UgkHbr8wSPrDYZ-19" edge="1">
                    <mxGeometry relative="1" as="geometry"/>
                </mxCell>
                <mxCell id="341uI1UgkHbr8wSPrDYZ-24" style="edgeStyle=orthogonalEdgeStyle;rounded=0;orthogonalLoop=1;jettySize=auto;html=1;exitX=1;exitY=0.5;exitDx=0;exitDy=0;entryX=-0.017;entryY=0.327;entryDx=0;entryDy=0;entryPerimeter=0;" parent="1G5voQuGkvZB4VuU4Dce-1" source="341uI1UgkHbr8wSPrDYZ-15" target="341uI1UgkHbr8wSPrDYZ-20" edge="1">
                    <mxGeometry relative="1" as="geometry"/>
                </mxCell>
                <mxCell id="341uI1UgkHbr8wSPrDYZ-15" value="Giỏ Hàng" style="ellipse;whiteSpace=wrap;html=1;" parent="1G5voQuGkvZB4VuU4Dce-1" vertex="1">
                    <mxGeometry x="360" y="660" width="60" height="40" as="geometry"/>
                </mxCell>
                <mxCell id="341uI1UgkHbr8wSPrDYZ-17" value="Thêm Sản Phẩm Vào Giỏ Hàng" style="ellipse;whiteSpace=wrap;html=1;" parent="1G5voQuGkvZB4VuU4Dce-1" vertex="1">
                    <mxGeometry x="280" y="690" width="80" height="70" as="geometry"/>
                </mxCell>
                <mxCell id="341uI1UgkHbr8wSPrDYZ-18" value="Sửa Giỏ Hàng" style="ellipse;whiteSpace=wrap;html=1;" parent="1G5voQuGkvZB4VuU4Dce-1" vertex="1">
                    <mxGeometry x="340" y="750" width="60" height="60" as="geometry"/>
                </mxCell>
                <mxCell id="341uI1UgkHbr8wSPrDYZ-19" value="Xóa Sản Phẩm Trong Giỏ Hàng" style="ellipse;whiteSpace=wrap;html=1;" parent="1G5voQuGkvZB4VuU4Dce-1" vertex="1">
                    <mxGeometry x="414" y="745" width="76" height="75" as="geometry"/>
                </mxCell>
                <mxCell id="341uI1UgkHbr8wSPrDYZ-20" value="Thanh Toán" style="ellipse;whiteSpace=wrap;html=1;" parent="1G5voQuGkvZB4VuU4Dce-1" vertex="1">
                    <mxGeometry x="470" y="690" width="60" height="55" as="geometry"/>
                </mxCell>
                <mxCell id="341uI1UgkHbr8wSPrDYZ-28" style="edgeStyle=orthogonalEdgeStyle;rounded=0;orthogonalLoop=1;jettySize=auto;html=1;exitX=1;exitY=1;exitDx=0;exitDy=0;entryX=0;entryY=0.633;entryDx=0;entryDy=0;entryPerimeter=0;" parent="1G5voQuGkvZB4VuU4Dce-1" source="341uI1UgkHbr8wSPrDYZ-25" target="341uI1UgkHbr8wSPrDYZ-26" edge="1">
                    <mxGeometry relative="1" as="geometry"/>
                </mxCell>
                <mxCell id="341uI1UgkHbr8wSPrDYZ-30" style="edgeStyle=orthogonalEdgeStyle;rounded=0;orthogonalLoop=1;jettySize=auto;html=1;exitX=1;exitY=0;exitDx=0;exitDy=0;entryX=0;entryY=0.738;entryDx=0;entryDy=0;entryPerimeter=0;" parent="1G5voQuGkvZB4VuU4Dce-1" source="341uI1UgkHbr8wSPrDYZ-25" target="341uI1UgkHbr8wSPrDYZ-29" edge="1">
                    <mxGeometry relative="1" as="geometry"/>
                </mxCell>
                <mxCell id="341uI1UgkHbr8wSPrDYZ-25" value="Tin Tức" style="ellipse;whiteSpace=wrap;html=1;" parent="1G5voQuGkvZB4VuU4Dce-1" vertex="1">
                    <mxGeometry x="460" y="610" width="50" height="50" as="geometry"/>
                </mxCell>
                <mxCell id="341uI1UgkHbr8wSPrDYZ-35" style="edgeStyle=orthogonalEdgeStyle;rounded=0;orthogonalLoop=1;jettySize=auto;html=1;exitX=0.5;exitY=1;exitDx=0;exitDy=0;entryX=0.5;entryY=0;entryDx=0;entryDy=0;" parent="1G5voQuGkvZB4VuU4Dce-1" source="341uI1UgkHbr8wSPrDYZ-26" target="341uI1UgkHbr8wSPrDYZ-34" edge="1">
                    <mxGeometry relative="1" as="geometry"/>
                </mxCell>
                <mxCell id="341uI1UgkHbr8wSPrDYZ-36" style="edgeStyle=orthogonalEdgeStyle;rounded=0;orthogonalLoop=1;jettySize=auto;html=1;exitX=1;exitY=1;exitDx=0;exitDy=0;entryX=0;entryY=0.5;entryDx=0;entryDy=0;" parent="1G5voQuGkvZB4VuU4Dce-1" source="341uI1UgkHbr8wSPrDYZ-26" target="341uI1UgkHbr8wSPrDYZ-31" edge="1">
                    <mxGeometry relative="1" as="geometry">
                        <Array as="points">
                            <mxPoint x="581" y="710"/>
                            <mxPoint x="620" y="710"/>
                            <mxPoint x="620" y="755"/>
                        </Array>
                    </mxGeometry>
                </mxCell>
                <mxCell id="341uI1UgkHbr8wSPrDYZ-37" style="edgeStyle=orthogonalEdgeStyle;rounded=0;orthogonalLoop=1;jettySize=auto;html=1;exitX=1;exitY=0.5;exitDx=0;exitDy=0;entryX=-0.02;entryY=0.8;entryDx=0;entryDy=0;entryPerimeter=0;" parent="1G5voQuGkvZB4VuU4Dce-1" source="341uI1UgkHbr8wSPrDYZ-26" target="341uI1UgkHbr8wSPrDYZ-32" edge="1">
                    <mxGeometry relative="1" as="geometry">
                        <Array as="points">
                            <mxPoint x="590" y="700"/>
                            <mxPoint x="645" y="700"/>
                            <mxPoint x="645" y="680"/>
                            <mxPoint x="759" y="680"/>
                        </Array>
                    </mxGeometry>
                </mxCell>
                <mxCell id="341uI1UgkHbr8wSPrDYZ-38" style="edgeStyle=orthogonalEdgeStyle;rounded=0;orthogonalLoop=1;jettySize=auto;html=1;exitX=1;exitY=0;exitDx=0;exitDy=0;entryX=0.5;entryY=1;entryDx=0;entryDy=0;" parent="1G5voQuGkvZB4VuU4Dce-1" source="341uI1UgkHbr8wSPrDYZ-26" target="341uI1UgkHbr8wSPrDYZ-33" edge="1">
                    <mxGeometry relative="1" as="geometry">
                        <Array as="points">
                            <mxPoint x="581" y="670"/>
                            <mxPoint x="670" y="670"/>
                            <mxPoint x="670" y="590"/>
                            <mxPoint x="765" y="590"/>
                        </Array>
                    </mxGeometry>
                </mxCell>
                <mxCell id="341uI1UgkHbr8wSPrDYZ-40" style="edgeStyle=orthogonalEdgeStyle;rounded=0;orthogonalLoop=1;jettySize=auto;html=1;exitX=1;exitY=0;exitDx=0;exitDy=0;entryX=-0.02;entryY=0.78;entryDx=0;entryDy=0;entryPerimeter=0;" parent="1G5voQuGkvZB4VuU4Dce-1" source="341uI1UgkHbr8wSPrDYZ-26" target="341uI1UgkHbr8wSPrDYZ-39" edge="1">
                    <mxGeometry relative="1" as="geometry"/>
                </mxCell>
                <mxCell id="341uI1UgkHbr8wSPrDYZ-26" value="Danh Sách Tin Tức" style="ellipse;whiteSpace=wrap;html=1;" parent="1G5voQuGkvZB4VuU4Dce-1" vertex="1">
                    <mxGeometry x="530" y="640" width="60" height="60" as="geometry"/>
                </mxCell>
                <mxCell id="341uI1UgkHbr8wSPrDYZ-41" style="edgeStyle=orthogonalEdgeStyle;rounded=0;orthogonalLoop=1;jettySize=auto;html=1;exitX=1;exitY=1;exitDx=0;exitDy=0;entryX=0;entryY=0.5;entryDx=0;entryDy=0;" parent="1G5voQuGkvZB4VuU4Dce-1" source="341uI1UgkHbr8wSPrDYZ-29" target="341uI1UgkHbr8wSPrDYZ-31" edge="1">
                    <mxGeometry relative="1" as="geometry">
                        <mxPoint x="780" y="810" as="targetPoint"/>
                        <Array as="points">
                            <mxPoint x="610" y="610"/>
                            <mxPoint x="610" y="730"/>
                            <mxPoint x="760" y="730"/>
                        </Array>
                    </mxGeometry>
                </mxCell>
                <mxCell id="341uI1UgkHbr8wSPrDYZ-42" style="edgeStyle=orthogonalEdgeStyle;rounded=0;orthogonalLoop=1;jettySize=auto;html=1;exitX=1;exitY=1;exitDx=0;exitDy=0;entryX=0;entryY=0.5;entryDx=0;entryDy=0;" parent="1G5voQuGkvZB4VuU4Dce-1" source="341uI1UgkHbr8wSPrDYZ-29" target="341uI1UgkHbr8wSPrDYZ-32" edge="1">
                    <mxGeometry relative="1" as="geometry"/>
                </mxCell>
                <mxCell id="341uI1UgkHbr8wSPrDYZ-43" style="edgeStyle=orthogonalEdgeStyle;rounded=0;orthogonalLoop=1;jettySize=auto;html=1;exitX=1;exitY=0.5;exitDx=0;exitDy=0;entryX=0.02;entryY=0.64;entryDx=0;entryDy=0;entryPerimeter=0;" parent="1G5voQuGkvZB4VuU4Dce-1" source="341uI1UgkHbr8wSPrDYZ-29" target="341uI1UgkHbr8wSPrDYZ-33" edge="1">
                    <mxGeometry relative="1" as="geometry"/>
                </mxCell>
                <mxCell id="341uI1UgkHbr8wSPrDYZ-44" style="edgeStyle=orthogonalEdgeStyle;rounded=0;orthogonalLoop=1;jettySize=auto;html=1;exitX=1;exitY=0;exitDx=0;exitDy=0;entryX=0.5;entryY=1;entryDx=0;entryDy=0;" parent="1G5voQuGkvZB4VuU4Dce-1" source="341uI1UgkHbr8wSPrDYZ-29" target="341uI1UgkHbr8wSPrDYZ-39" edge="1">
                    <mxGeometry relative="1" as="geometry"/>
                </mxCell>
                <mxCell id="341uI1UgkHbr8wSPrDYZ-46" style="edgeStyle=orthogonalEdgeStyle;rounded=0;orthogonalLoop=1;jettySize=auto;html=1;exitX=1;exitY=0;exitDx=0;exitDy=0;entryX=0.7;entryY=1.06;entryDx=0;entryDy=0;entryPerimeter=0;" parent="1G5voQuGkvZB4VuU4Dce-1" source="341uI1UgkHbr8wSPrDYZ-29" target="341uI1UgkHbr8wSPrDYZ-45" edge="1">
                    <mxGeometry relative="1" as="geometry"/>
                </mxCell>
                <mxCell id="341uI1UgkHbr8wSPrDYZ-29" value="Chi Tiết Tin Tức" style="ellipse;whiteSpace=wrap;html=1;" parent="1G5voQuGkvZB4VuU4Dce-1" vertex="1">
                    <mxGeometry x="525" y="555" width="70" height="65" as="geometry"/>
                </mxCell>
                <mxCell id="341uI1UgkHbr8wSPrDYZ-31" value="Tên Tin Tức" style="ellipse;whiteSpace=wrap;html=1;" parent="1G5voQuGkvZB4VuU4Dce-1" vertex="1">
                    <mxGeometry x="760" y="695" width="50" height="50" as="geometry"/>
                </mxCell>
                <mxCell id="341uI1UgkHbr8wSPrDYZ-32" value="Tác Giả" style="ellipse;whiteSpace=wrap;html=1;" parent="1G5voQuGkvZB4VuU4Dce-1" vertex="1">
                    <mxGeometry x="760" y="615" width="50" height="50" as="geometry"/>
                </mxCell>
                <mxCell id="341uI1UgkHbr8wSPrDYZ-33" value="Danh Mục Tin" style="ellipse;whiteSpace=wrap;html=1;" parent="1G5voQuGkvZB4VuU4Dce-1" vertex="1">
                    <mxGeometry x="740" y="490" width="50" height="50" as="geometry"/>
                </mxCell>
                <mxCell id="341uI1UgkHbr8wSPrDYZ-34" value="Đoạn Trích" style="ellipse;whiteSpace=wrap;html=1;" parent="1G5voQuGkvZB4VuU4Dce-1" vertex="1">
                    <mxGeometry x="545" y="760" width="50" height="50" as="geometry"/>
                </mxCell>
                <mxCell id="341uI1UgkHbr8wSPrDYZ-39" value="Ngày Viết" style="ellipse;whiteSpace=wrap;html=1;" parent="1G5voQuGkvZB4VuU4Dce-1" vertex="1">
                    <mxGeometry x="680" y="440" width="50" height="50" as="geometry"/>
                </mxCell>
                <mxCell id="341uI1UgkHbr8wSPrDYZ-45" value="Nội Dung" style="ellipse;whiteSpace=wrap;html=1;" parent="1G5voQuGkvZB4VuU4Dce-1" vertex="1">
                    <mxGeometry x="580" y="460" width="50" height="50" as="geometry"/>
                </mxCell>
                <mxCell id="341uI1UgkHbr8wSPrDYZ-50" style="edgeStyle=orthogonalEdgeStyle;rounded=0;orthogonalLoop=1;jettySize=auto;html=1;exitX=1;exitY=0;exitDx=0;exitDy=0;entryX=0.5;entryY=1;entryDx=0;entryDy=0;" parent="1G5voQuGkvZB4VuU4Dce-1" source="341uI1UgkHbr8wSPrDYZ-47" target="341uI1UgkHbr8wSPrDYZ-49" edge="1">
                    <mxGeometry relative="1" as="geometry"/>
                </mxCell>
                <mxCell id="341uI1UgkHbr8wSPrDYZ-47" value="Liên Hệ" style="ellipse;whiteSpace=wrap;html=1;" parent="1G5voQuGkvZB4VuU4Dce-1" vertex="1">
                    <mxGeometry x="440" y="510" width="80" height="45" as="geometry"/>
                </mxCell>
                <mxCell id="341uI1UgkHbr8wSPrDYZ-49" value="Gửi Liên Hệ" style="ellipse;whiteSpace=wrap;html=1;" parent="1G5voQuGkvZB4VuU4Dce-1" vertex="1">
                    <mxGeometry x="500" y="440" width="70" height="40" as="geometry"/>
                </mxCell>
                <mxCell id="341uI1UgkHbr8wSPrDYZ-51" value="Xem Giới Thiệu Công Ty" style="ellipse;whiteSpace=wrap;html=1;" parent="1G5voQuGkvZB4VuU4Dce-1" vertex="1">
                    <mxGeometry x="350" y="450" width="80" height="50" as="geometry"/>
                </mxCell>
                <mxCell id="uOP9_a5jq8u6PZyzWdQ_-0" value="&lt;p style=&quot;line-height: 100%&quot;&gt;Quên Mật Khẩu&lt;/p&gt;" style="ellipse;whiteSpace=wrap;html=1;verticalAlign=middle;align=center;" parent="1G5voQuGkvZB4VuU4Dce-1" vertex="1">
                    <mxGeometry x="190" y="400" width="80" height="30" as="geometry"/>
                </mxCell>
            </root>
        </mxGraphModel>
    </diagram>
</mxfile>
